<?xml version="1.0" standalone="no"?>
<!DOCTYPE svg PUBLIC "-//W3C//DTD SVG 20010904//EN"
 "http://www.w3.org/TR/2001/REC-SVG-20010904/DTD/svg10.dtd">
<svg version="1.0" xmlns="http://www.w3.org/2000/svg"
 width="500.000000pt" height="500.000000pt" viewBox="0 0 500.000000 500.000000"
 preserveAspectRatio="xMidYMid meet">
<metadata>
Created by potrace 1.14, written by Peter Selinger 2001-2017
</metadata>
<g transform="translate(0.000000,500.000000) scale(0.100000,-0.100000)"
fill="#000000" stroke="none">
<path d="M2974 4735 c-198 -51 -426 -190 -495 -302 -33 -53 -24 -153 25 -263
20 -47 39 -89 42 -95 6 -14 -159 -71 -230 -80 -32 -4 -81 -14 -110 -22 -87
-26 -248 -107 -320 -162 l-68 -52 -47 44 c-65 61 -245 161 -276 153 -36 -9
-141 -111 -177 -171 -30 -51 -32 -52 -62 -44 -97 28 -142 -1 -196 -127 -52
-124 -140 -386 -140 -417 0 -42 17 -67 45 -67 14 0 25 -3 25 -7 0 -3 -22 -40
-49 -82 -26 -42 -84 -139 -129 -217 -75 -130 -173 -288 -384 -619 -91 -144
-205 -268 -275 -301 -34 -15 -41 -23 -36 -39 8 -28 8 -28 44 -20 53 12 187
150 276 284 90 137 100 148 79 99 -49 -120 -255 -354 -346 -394 -35 -15 -39
-21 -33 -43 3 -14 9 -30 13 -35 19 -20 196 63 262 122 23 20 39 30 36 21 -28
-75 -70 -322 -92 -541 l-6 -56 71 -109 c84 -128 186 -256 296 -373 l80 -84 6
234 c5 194 30 516 41 527 2 2 13 -36 26 -84 12 -49 29 -100 36 -115 8 -15 14
-39 14 -53 0 -15 5 -36 12 -48 7 -12 12 -26 13 -32 0 -5 4 -33 8 -60 8 -47 6
-55 -27 -109 -19 -32 -41 -74 -47 -94 -17 -51 -6 -125 25 -172 15 -23 26 -54
26 -74 0 -36 21 -62 41 -51 21 14 2 91 -36 140 -29 38 -35 55 -35 93 0 57 48
146 124 229 41 46 53 53 85 53 22 0 50 -9 69 -23 43 -29 141 -145 149 -176 9
-37 -22 -88 -74 -122 -41 -26 -55 -30 -96 -26 -26 2 -73 18 -107 35 -69 36
-88 27 -42 -21 17 -18 35 -50 41 -72 18 -64 53 -119 90 -137 54 -27 55 -11 2
41 -31 30 -53 62 -60 86 -6 22 -9 40 -7 42 1 2 17 -4 35 -13 45 -22 104 -13
157 24 l42 30 12 -29 c19 -45 28 -35 29 33 1 35 2 84 3 109 2 40 -3 53 -38
100 -27 35 -52 87 -72 149 -39 117 -40 134 -4 84 62 -84 188 -184 257 -203 60
-16 89 -13 112 11 16 18 40 89 30 88 -1 0 -20 -7 -42 -15 -22 -8 -59 -14 -81
-15 -36 0 -47 5 -74 37 -73 82 -110 213 -110 388 0 100 23 321 34 332 2 3 7
-17 11 -44 17 -122 74 -242 155 -323 134 -134 424 -228 749 -243 77 -3 75 -22
-4 -35 -60 -10 -145 -44 -187 -74 -14 -10 -20 -9 -35 5 -25 22 -97 47 -137 47
-17 0 -54 -12 -82 -26 -107 -54 -314 -274 -379 -403 -26 -51 -27 -58 -16 -105
7 -28 20 -67 30 -86 l17 -35 -50 -66 c-28 -37 -56 -75 -62 -85 -9 -15 -15 -4
-37 67 -15 46 -31 90 -36 98 -6 10 -1 21 21 39 34 29 51 66 43 93 -10 30 -35
23 -35 -9 0 -34 -31 -65 -82 -82 -45 -14 -48 -26 -9 -35 26 -6 29 -11 46 -88
19 -90 25 -101 67 -123 28 -14 28 -14 61 32 17 26 59 82 92 124 34 42 70 89
81 104 l20 27 39 -29 c22 -16 49 -45 59 -64 l19 -36 -37 -123 c-39 -132 -44
-169 -23 -169 9 0 26 41 46 108 69 227 189 492 296 653 82 123 176 190 301
214 31 6 32 5 36 -34 4 -51 -29 -99 -104 -149 -29 -19 -64 -44 -77 -56 l-24
-21 19 33 c10 18 47 64 82 102 58 64 74 90 53 90 -20 0 -127 -118 -178 -197
-62 -95 -111 -209 -143 -328 -32 -125 -64 -372 -56 -437 7 -54 8 -56 42 -61
23 -4 41 -1 52 8 9 8 26 21 37 29 11 9 15 16 9 16 -6 0 -26 22 -45 50 -19 27
-37 50 -41 50 -16 0 -7 50 28 161 44 138 80 211 172 349 59 89 156 211 138
173 -7 -12 50 -60 104 -88 19 -10 61 -20 95 -23 60 -4 82 0 278 57 l67 20 -45
-87 c-43 -84 -125 -193 -286 -379 -75 -88 -179 -227 -234 -315 -17 -27 -36
-48 -42 -48 -26 0 -12 -18 17 -22 29 -4 33 0 86 86 71 114 135 198 269 356
188 220 245 308 286 440 16 54 18 55 96 95 44 22 96 52 115 67 l35 27 30 -58
29 -57 -20 -15 c-12 -9 -39 -19 -61 -23 -54 -10 -134 -66 -175 -122 -29 -41
-32 -51 -28 -96 4 -41 1 -55 -16 -76 -61 -75 -84 -141 -65 -187 l12 -30 9 55
c9 58 20 78 69 135 34 39 49 44 49 18 0 -33 47 -118 84 -152 34 -33 35 -36 21
-57 -9 -14 -11 -25 -5 -29 9 -5 -37 -144 -94 -284 l-25 -63 27 7 c15 3 32 13
39 21 17 23 71 198 85 277 11 64 13 68 35 62 35 -8 28 16 -11 42 -61 39 -125
161 -141 266 -8 52 -25 64 -25 18 0 -39 -16 -48 -23 -14 -4 22 4 39 46 87 56
64 111 95 168 96 46 0 141 -48 156 -80 7 -14 13 -63 13 -110 0 -80 2 -89 38
-150 48 -84 251 -294 274 -285 22 9 25 18 39 137 13 112 7 348 -11 410 -10 34
-69 99 -101 111 -10 3 5 24 46 68 184 194 247 262 313 337 65 75 72 86 72 125
0 65 -36 127 -90 155 -85 42 -88 40 -263 -137 -134 -138 -279 -303 -381 -436
l-28 -37 -24 39 c-13 21 -26 44 -30 51 -4 7 12 32 38 60 58 62 116 149 166
248 40 79 42 82 89 93 128 33 240 128 287 245 14 37 26 72 26 79 0 7 20 27 45
45 82 57 181 214 236 374 21 59 26 67 54 71 16 3 40 8 53 12 22 7 22 6 22 -71
0 -137 -20 -311 -66 -584 -84 -500 -97 -837 -38 -1012 17 -52 31 -59 58 -29
16 18 16 27 0 162 -27 234 -11 549 47 949 21 138 32 264 36 385 5 140 8 174
17 155 6 -16 10 -116 11 -265 0 -231 -2 -248 -38 -460 -44 -264 -57 -393 -57
-582 0 -137 15 -293 29 -293 4 0 35 29 70 64 l64 65 -16 93 c-33 190 -31 288
15 547 l22 126 9 -55 c8 -53 4 -314 -9 -565 l-7 -120 22 19 c35 31 163 205
225 305 82 133 176 326 232 476 45 121 49 136 48 215 -4 217 -84 544 -213 868
l-41 104 15 81 c9 45 18 139 22 209 9 178 8 178 -137 178 -127 0 -118 -12 -94
125 25 146 5 215 -62 215 -38 0 -253 -83 -361 -139 l-72 -38 -47 59 c-161 205
-510 400 -784 438 -47 7 -114 23 -150 38 -50 19 -89 26 -167 30 -68 3 -103 9
-103 16 0 33 46 169 77 229 49 93 114 160 187 192 l59 26 51 -21 c77 -33 190
-106 225 -145 27 -31 71 -105 71 -120 0 -3 -38 -5 -85 -5 -68 0 -87 -3 -91
-15 -7 -17 40 -95 56 -95 5 0 25 -14 45 -31 32 -29 38 -30 64 -19 95 39 150
179 129 329 -21 162 -109 291 -218 321 -60 17 -179 11 -276 -15z m271 -32 c60
-29 42 -48 -32 -34 -26 6 -82 16 -123 23 -58 9 -69 14 -50 19 50 14 168 10
205 -8z m-379 -64 c-38 -11 -77 -24 -87 -30 -11 -5 -19 -7 -19 -4 0 7 65 35
105 45 65 17 66 7 1 -11z m-198 -604 c-3 -3 -46 -17 -97 -30 -50 -14 -119 -39
-153 -56 -80 -41 -119 -52 -112 -34 6 16 154 81 239 106 57 17 135 25 123 14z
m-398 -95 c-14 -11 -29 -20 -34 -20 -21 0 -202 -93 -247 -126 -43 -32 -49 -40
-49 -73 0 -81 -104 -245 -259 -406 -66 -69 -84 -94 -121 -180 -47 -108 -129
-331 -150 -408 -16 -59 -31 -71 -24 -20 39 286 189 584 388 769 44 41 76 77
73 80 -20 20 -234 -179 -308 -286 -30 -44 -52 -66 -68 -68 -14 -2 -58 -33
-100 -68 -93 -78 -187 -128 -244 -128 -31 -1 -42 3 -42 14 0 8 11 17 25 18 41
6 120 41 169 74 84 58 163 142 277 295 217 292 397 440 644 529 81 29 104 31
70 4z m555 -28 c-3 -3 -11 0 -18 7 -9 10 -8 11 6 5 10 -3 15 -9 12 -12z
m-1260 -48 c38 -25 23 -28 -36 -9 l-53 18 -70 -74 c-64 -68 -67 -71 -45 -31
13 24 47 66 77 94 59 55 45 55 127 2z m1083 -1 c3 -20 -1 -23 -28 -23 -27 0
-30 2 -20 19 9 17 6 20 -18 24 -15 3 -7 4 18 3 39 -1 45 -4 48 -23z m477 9
c-3 -3 -11 0 -18 7 -9 10 -8 11 6 5 10 -3 15 -9 12 -12z m79 -10 c2 -4 -5 -9
-17 -9 -17 -2 -19 0 -7 7 18 12 18 12 24 2z m-1549 -160 c-6 -5 -33 -25 -61
-45 -45 -32 -53 -35 -69 -23 -18 13 -17 14 6 29 50 31 85 46 109 47 13 0 20
-4 15 -8z m-415 -10 c30 -14 18 -28 -23 -29 -23 -1 -45 -2 -48 -2 -6 -1 -33
-54 -73 -141 -14 -30 -25 -49 -25 -42 -1 20 67 184 85 204 17 18 56 23 84 10z
m2258 -29 c16 -21 44 -67 62 -102 37 -74 100 -261 100 -297 0 -31 -25 -32 -43
-1 -8 12 -29 48 -48 80 -19 32 -48 74 -66 93 -35 39 -63 130 -63 205 0 71 14
77 58 22z m-1230 15 c29 -29 4 -99 -90 -257 -28 -47 -60 -96 -71 -108 -39 -43
-97 -20 -97 38 0 53 83 191 173 287 52 54 65 60 85 40z m-154 -21 c9 -15 1
-27 -56 -78 -37 -33 -93 -87 -124 -119 -45 -47 -60 -57 -71 -49 -19 16 -16 49
8 89 82 136 206 216 243 157z m2234 -11 c-31 -16 -181 -66 -200 -66 -24 0 7
19 82 49 41 17 91 31 110 31 l35 0 -27 -14z m-517 -56 c102 -106 188 -270 220
-414 12 -54 11 -60 -6 -72 -28 -20 -48 -17 -91 15 -91 66 -132 126 -163 240
-12 41 -19 76 -17 78 6 6 102 -148 137 -220 34 -68 57 -89 45 -41 -13 50 -95
210 -150 291 -50 73 -56 89 -56 133 0 33 4 50 12 50 7 0 38 -27 69 -60z m-618
12 c36 -34 76 -119 89 -192 14 -73 -4 -110 -52 -110 -49 0 -86 44 -121 140
-39 110 -41 156 -10 181 28 23 54 18 94 -19z m-719 12 c9 -8 16 -27 16 -42 0
-35 -39 -171 -58 -205 -23 -38 -58 -46 -85 -18 -20 19 -20 24 -9 83 21 102 42
156 69 178 31 24 46 25 67 4z m348 -97 c15 -54 25 -104 21 -112 -7 -19 -57
-19 -77 0 -19 19 -24 35 -35 115 -10 78 -1 103 37 98 25 -3 29 -10 54 -101z
m1238 -46 c-36 -10 -73 -21 -82 -25 -10 -5 -18 -4 -18 1 0 13 88 41 130 41 28
1 22 -3 -30 -17z m60 -11 c-34 -11 -60 -11 -35 0 11 5 29 8 40 8 16 0 15 -2
-5 -8z m136 -20 c34 -13 30 -17 -31 -25 -28 -3 -87 -16 -133 -27 -61 -15 -86
-18 -95 -9 -6 6 -9 12 -6 15 5 4 208 54 226 55 6 1 24 -4 39 -9z m322 -137
l-3 -28 -160 1 c-153 2 -245 14 -245 34 0 9 77 14 303 18 l108 2 -3 -27z
m-2348 -153 c0 -58 7 -148 14 -200 8 -52 13 -96 11 -98 -7 -7 -33 54 -40 93
-11 64 -15 75 -31 75 -17 0 -17 1 -4 93 29 195 50 211 50 37z m-442 -27 c-32
-76 -68 -168 -79 -206 -12 -37 -25 -70 -30 -73 -13 -8 -11 12 11 96 22 85 25
117 9 122 -14 5 10 58 27 58 6 0 26 24 42 54 31 55 57 86 72 86 4 0 -19 -62
-52 -137z m1135 -275 c7 -4 -8 -8 -34 -8 l-45 0 28 83 c15 45 29 93 30 107 1
14 4 -20 5 -75 3 -63 8 -102 16 -107z m-2014 30 c-117 -233 -309 -681 -364
-848 -10 -30 -20 -50 -22 -44 -6 18 97 323 157 464 84 202 276 570 295 570 3
0 -27 -64 -66 -142z m1041 1 c22 -22 53 -42 80 -50 25 -7 59 -25 75 -41 17
-15 34 -28 38 -28 17 0 5 33 -22 58 l-28 27 37 52 36 51 12 -42 c15 -56 40
-87 97 -115 96 -48 248 -11 330 81 25 28 45 56 45 64 0 23 17 16 24 -9 3 -12
21 -41 41 -64 l35 -41 -37 -13 c-105 -34 -177 -86 -167 -123 4 -16 -3 -32 -22
-55 -19 -23 -24 -35 -16 -43 17 -17 69 10 105 54 79 99 254 158 369 124 117
-34 203 -154 235 -329 8 -45 17 -93 19 -105 4 -20 9 -23 30 -18 l25 7 -21 -42
c-17 -32 -26 -40 -42 -36 -14 4 -22 0 -25 -14 -3 -10 -12 -19 -20 -19 -7 0
-25 -7 -39 -16 -34 -23 -37 -14 -15 37 29 65 36 138 21 227 -17 102 -24 115
-39 69 -23 -70 -119 -125 -170 -98 -56 30 5 181 87 219 21 9 38 17 40 18 2 1
-3 12 -10 23 -22 36 -105 71 -168 71 -89 0 -142 -23 -204 -90 -92 -100 -137
-224 -117 -320 13 -59 60 -157 88 -183 31 -28 145 -46 280 -45 112 1 127 3
177 28 64 33 89 26 49 -13 -36 -34 -97 -59 -127 -51 -33 8 -40 -19 -13 -44 69
-65 206 -69 256 -8 26 32 29 15 10 -55 -31 -111 -96 -284 -154 -407 l-54 -112
-67 -30 c-37 -17 -128 -54 -203 -82 -175 -65 -284 -77 -531 -60 -236 17 -413
58 -568 132 -222 105 -321 305 -297 594 6 76 9 86 23 80 53 -22 119 -26 175
-10 31 9 57 21 57 27 0 6 -6 9 -13 6 -20 -8 -71 18 -116 58 -46 42 -49 50 -21
58 11 3 20 1 20 -4 0 -5 20 -22 44 -38 57 -35 204 -57 332 -48 81 6 90 9 121
39 102 98 117 225 42 343 l-31 48 -30 -59 c-37 -74 -61 -93 -115 -94 -72 0
-92 54 -51 137 26 52 70 93 100 93 17 0 19 4 13 28 -9 37 -15 41 -71 57 -43
12 -45 13 -18 14 65 2 95 -10 119 -50 31 -48 90 -93 111 -85 16 6 16 8 0 24
-20 23 -21 42 0 42 11 0 14 6 10 20 -3 11 -8 29 -11 39 -18 63 -144 117 -249
108 -61 -5 -61 -5 -23 9 21 7 45 10 54 7 14 -6 15 0 10 43 -5 41 -4 46 6 29 7
-11 28 -36 47 -56z m-327 -71 c-3 -32 -9 -58 -14 -58 -12 0 -11 8 2 70 14 65
18 61 12 -12z m1567 -45 c0 -45 -1 -46 -17 -30 -13 13 -14 20 -5 29 7 7 12 20
12 30 0 10 2 18 5 18 3 0 5 -21 5 -47z m-1486 -1 c-54 -35 -154 -135 -154
-154 0 -5 -4 -8 -10 -8 -20 0 -9 17 48 77 54 57 143 123 166 123 5 0 -18 -17
-50 -38z m1566 -39 c0 -15 15 -33 43 -54 23 -17 40 -36 38 -42 -2 -7 -7 -48
-12 -91 -8 -77 -17 -96 -48 -96 -11 0 -11 4 2 18 14 16 15 24 3 72 -14 63 -27
90 -67 141 -24 30 -26 38 -14 43 8 3 20 17 27 31 13 29 28 17 28 -22z m-2274
-5 c-18 -26 -22 -17 -5 14 6 11 13 17 16 15 3 -3 -2 -16 -11 -29z m3438 -79
c-6 -11 -34 1 -67 27 -18 15 -27 31 -27 50 0 28 0 28 50 -21 27 -26 47 -52 44
-56z m-1185 -55 c17 -26 31 -59 31 -73 0 -20 -9 -10 -38 45 -21 38 -55 92 -76
120 l-38 49 45 -47 c24 -26 59 -69 76 -94z m-1699 109 c0 -5 -15 -24 -33 -43
-17 -19 -33 -39 -33 -45 -1 -5 -2 -17 -3 -27 -2 -25 -38 -10 -46 19 -7 30 -11
26 56 68 64 39 59 37 59 28z m-594 -64 c-40 -92 -127 -352 -122 -366 3 -7 1
-13 -4 -13 -6 0 -10 -18 -10 -41 0 -22 4 -38 9 -35 5 4 7 -2 4 -13 -2 -10 -19
-25 -37 -34 l-33 -15 68 201 c65 197 137 382 145 374 2 -2 -6 -28 -20 -58z
m700 11 c-64 -72 -91 -145 -91 -246 1 -66 5 -90 26 -132 26 -53 25 -54 -27
-15 -17 13 -36 23 -42 23 -7 0 -12 5 -12 11 0 7 -9 9 -21 6 -42 -11 -50 91 -8
113 10 6 19 18 19 26 0 38 75 156 132 209 32 30 62 55 64 55 3 0 -15 -23 -40
-50z m-315 -122 c12 -10 27 -18 35 -18 8 0 14 -7 14 -15 0 -8 -6 -15 -14 -15
-24 0 -38 -26 -22 -39 12 -10 6 -32 -41 -144 -83 -197 -160 -424 -184 -539
-11 -57 -22 -104 -24 -106 -2 -2 -6 16 -10 40 -18 115 -78 376 -92 399 -15 26
-14 31 20 104 50 104 137 252 211 356 l61 86 12 -46 c7 -25 22 -54 34 -63z
m175 35 c-10 -10 -19 5 -10 18 6 11 8 11 12 0 2 -7 1 -15 -2 -18z m1342 -64
c-2 -29 -7 -34 -28 -34 -35 0 -41 46 -8 69 28 20 40 8 36 -35z m-1371 17 c-7
-21 -37 -19 -37 2 0 15 5 19 20 15 12 -3 19 -11 17 -17z m291 -22 c3 -32 -28
-71 -47 -59 -16 9 -13 47 5 73 20 30 38 23 42 -14z m-1202 -111 c-14 -26 -25
-45 -26 -41 0 12 43 98 48 94 2 -2 -8 -26 -22 -53z m1409 17 c-3 -5 -13 -10
-21 -10 -8 0 -12 5 -9 10 3 6 13 10 21 10 8 0 12 -4 9 -10z m1335 6 c0 -3 -4
-8 -10 -11 -5 -3 -10 -1 -10 4 0 6 5 11 10 11 6 0 10 -2 10 -4z m-1913 -40
c-3 -19 -16 -58 -30 -87 -109 -240 -196 -562 -198 -733 -1 -90 -17 -40 -18 56
-2 144 43 312 161 608 38 96 72 178 75 182 10 18 15 6 10 -26z m1367 1 c12
-30 17 -33 47 -30 19 2 59 -3 89 -11 48 -12 57 -13 71 0 18 16 49 19 49 4 0
-5 -6 -10 -14 -10 -21 0 -29 -31 -12 -48 11 -12 12 -20 3 -40 -11 -24 -14 -24
-82 -18 -151 14 -226 24 -231 28 -3 3 -8 22 -11 42 -6 36 -6 36 28 34 32 -3
34 -1 31 26 -3 29 3 56 13 56 2 0 11 -15 19 -33z m256 23 c0 -5 -9 -10 -21
-10 -11 0 -17 5 -14 10 3 6 13 10 21 10 8 0 14 -4 14 -10z m-1270 -24 c0 -20
56 -39 99 -33 21 2 45 0 55 -5 19 -11 57 -1 41 10 -6 4 -11 15 -11 25 -1 12 6
17 25 17 20 0 23 -2 11 -10 -13 -8 -12 -10 3 -10 9 0 17 -4 17 -10 0 -5 -7
-10 -15 -10 -15 0 -20 -16 -16 -57 1 -14 -9 -29 -29 -43 -34 -24 -37 -24 -182
8 -71 15 -78 19 -83 44 -8 35 -5 43 20 44 41 2 46 4 40 14 -9 15 3 43 15 35 5
-3 10 -12 10 -19z m1270 -6 c0 -5 -7 -10 -15 -10 -8 0 -15 5 -15 10 0 6 7 10
15 10 8 0 15 -4 15 -10z m315 -72 c-8 -60 -35 -121 -73 -160 -26 -28 -52 -37
-52 -17 0 5 -4 7 -10 4 -5 -3 14 27 43 67 28 40 61 92 71 116 10 23 21 42 23
42 3 0 2 -24 -2 -52z m330 -110 c36 -28 53 -72 61 -155 16 -170 -88 -342 -238
-392 -34 -11 -63 -19 -65 -17 -3 2 1 23 8 45 8 28 23 48 43 61 57 35 97 85
103 127 6 45 -15 96 -47 113 -21 11 -25 42 -14 99 6 28 10 31 46 31 33 0 42
-5 56 -30 21 -36 32 -38 32 -6 0 40 -39 76 -88 83 -36 5 -43 9 -40 26 6 39
100 49 143 15z m-2732 -67 c17 -7 27 -20 32 -43 4 -18 31 -132 60 -253 29
-121 64 -270 77 -332 l24 -112 -47 6 c-65 8 -112 -3 -144 -33 -15 -14 -29 -24
-31 -22 -2 2 -19 80 -38 174 -37 181 -75 353 -105 474 -18 70 -18 76 -3 94 44
50 116 69 175 47z m-214 -335 c-50 -212 -78 -320 -79 -311 -1 6 -6 -1 -11 -15
-22 -64 3 166 31 280 17 69 36 154 43 190 l12 64 13 -58 c11 -53 10 -68 -9
-150z m2803 127 c29 -26 24 -79 -11 -114 -16 -16 -34 -29 -39 -29 -5 0 -2 36
7 80 9 44 18 80 20 80 3 0 13 -7 23 -17z m390 -274 c55 -65 52 -74 -73 -216
-228 -261 -254 -290 -320 -361 l-67 -72 -12 34 c-14 43 -77 102 -119 111 -17
4 -31 9 -31 12 0 2 62 71 138 151 75 81 188 204 250 274 l113 127 47 -14 c29
-9 57 -26 74 -46z m-923 -283 c-18 -25 -33 -46 -34 -46 0 0 -18 9 -39 20 -38
19 -39 20 -15 29 13 5 44 18 69 29 25 11 47 18 49 16 2 -1 -12 -23 -30 -48z
m-1869 -26 c0 -22 -5 -30 -17 -29 -11 0 -13 3 -5 6 6 2 12 9 12 15 0 7 -16 8
-47 3 -27 -4 -57 -7 -68 -7 -28 1 -45 -17 -45 -49 0 -41 -15 -43 -27 -4 -10
31 -9 36 14 50 40 26 95 44 141 44 40 1 42 0 42 -29z m1706 -9 c-3 -5 -7 -42
-9 -82 l-4 -74 -49 -33 c-69 -46 -86 -48 -131 -18 -63 43 -101 27 -89 -38 8
-43 18 -45 185 -48 l123 -2 -88 -35 c-84 -34 -95 -36 -204 -36 -130 1 -167 10
-224 58 l-40 34 29 37 c26 35 28 41 22 110 l-5 73 101 6 c107 7 291 32 342 47
41 11 47 12 41 1z m-1836 -21 c0 -5 8 -7 18 -4 14 5 14 4 2 -4 -9 -7 -19 -7
-26 -2 -6 6 -15 6 -19 2 -5 -4 -5 -1 -1 6 8 14 26 16 26 2z m73 3 c-7 -2 -19
-2 -25 0 -7 3 -2 5 12 5 14 0 19 -2 13 -5z m1850 -23 c5 -4 -5 -23 -22 -41
l-30 -34 -1 48 c0 46 1 48 23 42 12 -4 26 -11 30 -15z m-1755 -65 c17 -62 16
-68 -7 -55 -11 5 -39 10 -63 10 -34 0 -52 -7 -80 -30 l-37 -31 -10 38 c-6 21
-11 43 -11 48 0 24 98 63 160 64 34 1 36 -1 48 -44z m798 -60 l35 -14 -39 -53
c-54 -72 -121 -195 -162 -298 -18 -47 -42 -97 -52 -112 -10 -14 -18 -30 -18
-36 0 -5 -7 -15 -15 -22 -12 -10 -21 -7 -53 22 -20 18 -73 51 -117 73 -44 22
-82 41 -84 42 -14 8 159 230 238 306 104 100 182 128 267 92z m1365 -65 c22
-12 37 -25 34 -29 -2 -5 3 -8 12 -7 18 1 66 -61 57 -75 -7 -13 -34 -11 -34 2
0 5 5 7 11 3 8 -4 8 0 0 15 -13 24 -23 28 -15 6 4 -8 2 -15 -4 -15 -6 0 -9 8
-7 18 3 20 -52 71 -77 72 -9 0 -20 -5 -24 -12 -5 -8 -1 -9 12 -4 12 5 15 4 9
-2 -5 -6 -25 -8 -43 -5 l-33 5 22 24 c27 29 30 29 80 4z m-49 -89 c43 -28 88
-78 88 -99 0 -27 -21 -19 -34 12 -14 34 -94 95 -124 96 -7 0 -10 5 -7 10 10
16 28 12 77 -19z m305 -55 c26 -22 28 -29 25 -87 -3 -74 -34 -232 -60 -309
l-19 -55 -63 64 c-73 75 -100 116 -100 152 0 41 148 259 176 259 7 0 26 -11
41 -24z"/>
<path d="M2620 2829 c-32 -13 -80 -59 -80 -76 0 -16 16 -17 25 -3 4 6 31 25
61 41 30 17 54 35 54 40 0 12 -28 11 -60 -2z"/>
<path d="M2180 2154 c0 -8 5 -12 10 -9 6 3 10 10 10 16 0 5 -4 9 -10 9 -5 0
-10 -7 -10 -16z"/>
<path d="M2090 2045 c-47 -7 -104 -14 -128 -14 -37 -1 -45 -5 -62 -33 -27 -44
-50 -153 -50 -235 0 -84 29 -152 88 -205 87 -78 115 -71 41 11 -57 64 -66 89
-49 131 30 72 200 181 329 210 74 17 205 8 265 -19 117 -51 146 -82 146 -155
0 -49 -51 -126 -111 -168 -61 -43 -72 -58 -41 -58 31 0 116 64 149 113 57 86
54 199 -10 294 -78 116 -307 167 -567 128z m303 -29 c102 -20 170 -51 212 -97
32 -36 44 -59 29 -59 -3 0 -34 16 -68 35 -91 51 -147 66 -271 72 -118 6 -297
-9 -340 -29 -35 -16 -52 1 -33 33 9 18 22 24 48 25 19 1 67 8 105 17 90 20
223 21 318 3z m-291 -126 c-84 -42 -176 -117 -187 -151 -10 -31 -25 -11 -25
34 0 65 11 118 24 114 6 -2 24 2 40 10 35 18 102 30 175 32 l53 1 -80 -40z"/>
<path d="M1220 693 c-23 -9 -60 -45 -60 -60 0 -18 7 -16 37 7 17 13 41 20 69
20 47 0 57 12 25 30 -21 11 -47 12 -71 3z"/>
<path d="M2890 540 c0 -5 11 -12 25 -16 14 -3 41 -24 59 -46 20 -23 37 -35 41
-29 19 32 -47 101 -96 101 -16 0 -29 -4 -29 -10z"/>
<path d="M2867 474 c-13 -14 24 -62 62 -80 l40 -19 -33 -88 c-18 -48 -50 -112
-70 -142 -32 -49 -34 -55 -17 -55 39 0 111 126 133 233 7 31 17 57 23 57 14 0
55 38 55 50 0 13 -37 13 -45 0 -12 -19 -61 -10 -102 20 -22 16 -43 27 -46 24z"/>
<path d="M3194 444 c8 -29 94 -225 104 -236 4 -4 13 -4 20 1 25 15 -88 261
-119 261 -7 0 -9 -10 -5 -26z"/>
<path d="M2080 125 c-17 -20 -14 -21 48 -30 62 -8 70 7 16 30 -45 19 -49 19
-64 0z"/>
</g>
</svg>
