<?xml version="1.0" standalone="no"?>
<!DOCTYPE svg PUBLIC "-//W3C//DTD SVG 20010904//EN"
 "http://www.w3.org/TR/2001/REC-SVG-20010904/DTD/svg10.dtd">
<svg version="1.0" xmlns="http://www.w3.org/2000/svg"
 width="500.000000pt" height="500.000000pt" viewBox="0 0 500.000000 500.000000"
 preserveAspectRatio="xMidYMid meet">
<metadata>
Created by potrace 1.14, written by Peter Selinger 2001-2017
</metadata>
<g transform="translate(0.000000,500.000000) scale(0.100000,-0.100000)"
fill="#000000" stroke="none">
<path d="M2294 4919 c-720 -69 -1365 -452 -1777 -1054 -390 -572 -512 -1285
-336 -1972 40 -156 88 -283 174 -458 235 -476 614 -855 1090 -1090 181 -89
305 -135 479 -180 828 -210 1703 31 2306 635 199 200 334 389 460 645 159 322
233 618 247 985 37 1002 -556 1923 -1491 2315 -351 147 -774 211 -1152 174z"/>
</g>
</svg>
